<?xml version="1.0" standalone="no"?><!DOCTYPE svg PUBLIC "-//W3C//DTD SVG 1.1//EN" "http://www.w3.org/Graphics/SVG/1.1/DTD/svg11.dtd"><svg t="1579338624140" class="icon" viewBox="0 0 1024 1024" version="1.1" xmlns="http://www.w3.org/2000/svg" p-id="1232" xmlns:xlink="http://www.w3.org/1999/xlink" width="350" height="350"><defs><style type="text/css"></style></defs><path d="M500.49 683.967c-46.138 0-90.812-9.071-132.95-26.824-40.675-17.167-77.156-41.846-108.565-73.157s-55.99-67.89-73.157-108.564c-17.85-42.139-26.824-86.813-26.824-132.95 0-46.138 9.072-90.813 26.824-132.95 17.168-40.676 41.846-77.157 73.157-108.566S326.865 44.967 367.54 27.8C409.678 9.95 454.352 0.975 500.49 0.975s90.812 9.072 132.95 26.825c40.675 17.167 77.156 41.845 108.565 73.156s55.99 67.89 73.157 108.565c17.85 42.138 26.824 86.813 26.824 132.95s-9.072 90.812-26.824 132.95c-17.168 40.676-41.846 77.157-73.157 108.565s-67.89 55.99-108.565 73.157c-42.138 17.753-86.812 26.824-132.95 26.824z m0-620.662c-153.824 0-279.069 125.244-279.069 279.166s125.245 279.07 279.069 279.07c153.922 0 279.069-125.245 279.069-279.07S654.412 63.305 500.49 63.305z" p-id="1233"></path><path d="M33.36 1024c-3.317 0-6.633-0.488-9.95-1.658-16.387-5.463-25.166-23.215-19.703-39.505 17.265-51.405 42.333-99.59 74.522-143.387a523.471 523.471 0 0 1 113.344-113.052c90.13-65.938 196.938-100.761 308.917-100.761s218.788 34.823 308.917 100.761c43.406 31.701 81.448 69.743 113.344 113.052 32.189 43.796 57.257 92.08 74.522 143.387 5.463 16.387-3.316 34.042-19.703 39.505-16.387 5.462-34.042-3.317-39.505-19.704-63.11-188.16-238.881-314.574-437.575-314.574-198.596 0-374.465 126.415-437.575 314.672C58.525 1015.709 46.43 1024 33.359 1024z" p-id="1234"></path></svg>