<?xml version="1.0" standalone="no"?><!DOCTYPE svg PUBLIC "-//W3C//DTD SVG 1.1//EN" "http://www.w3.org/Graphics/SVG/1.1/DTD/svg11.dtd"><svg t="1579404687162" class="icon" viewBox="0 0 1024 1024" version="1.1" xmlns="http://www.w3.org/2000/svg" p-id="1204" xmlns:xlink="http://www.w3.org/1999/xlink" width="350" height="350"><defs><style type="text/css"></style></defs><path d="M832.89 960.15H191.11c-52.44 0-95.11-42.65-95.11-95.08V224.23c0-52.43 42.67-95.08 95.11-95.08h64.94c17.67 0 32 14.33 32 32s-14.33 32-32 32h-64.94c-17.15 0-31.11 13.94-31.11 31.08v640.83c0 17.14 13.96 31.08 31.11 31.08h641.78c17.15 0 31.11-13.94 31.11-31.08V224.23c0-17.14-13.96-31.08-31.11-31.08h-64.74c-17.67 0-32-14.33-32-32s14.33-32 32-32h64.74c52.44 0 95.11 42.65 95.11 95.08v640.83c0 52.43-42.67 95.09-95.11 95.09z" p-id="1205"></path><path d="M605.04 256.95H419.85c-52.92 0-95.98-43.06-95.98-95.98s43.06-95.98 95.98-95.98h185.18c52.92 0 95.98 43.06 95.98 95.98s-43.05 95.98-95.97 95.98zM419.85 128.99c-17.63 0-31.98 14.35-31.98 31.98 0 17.63 14.35 31.98 31.98 31.98h185.18c17.63 0 31.98-14.35 31.98-31.98 0-17.63-14.35-31.98-31.98-31.98H419.85zM672.1 448H350.9c-17.62 0-31.9-14.28-31.9-31.9v-0.21c0-17.62 14.28-31.9 31.9-31.9h321.2c17.62 0 31.9 14.28 31.9 31.9v0.21c0 17.62-14.28 31.9-31.9 31.9z m0 160H350.9c-17.62 0-31.9-14.28-31.9-31.9v-0.21c0-17.62 14.28-31.9 31.9-31.9h321.2c17.62 0 31.9 14.28 31.9 31.9v0.21c0 17.62-14.28 31.9-31.9 31.9z m0 160H350.9c-17.62 0-31.9-14.28-31.9-31.9v-0.21c0-17.62 14.28-31.9 31.9-31.9h321.2c17.62 0 31.9 14.28 31.9 31.9v0.21c0 17.62-14.28 31.9-31.9 31.9z" p-id="1206"></path></svg>