<?xml version="1.0" standalone="no"?><!DOCTYPE svg PUBLIC "-//W3C//DTD SVG 1.1//EN" "http://www.w3.org/Graphics/SVG/1.1/DTD/svg11.dtd"><svg t="1578983275838" class="icon" viewBox="0 0 1024 1024" version="1.1" xmlns="http://www.w3.org/2000/svg" p-id="1538" width="350" height="350" xmlns:xlink="http://www.w3.org/1999/xlink"><defs><style type="text/css"></style></defs><path d="M760.686 73.143H263.314c-102.4 0-190.171 87.771-190.171 190.171v497.372c0 102.4 87.771 190.171 190.171 190.171h497.372c102.4 0 190.171-87.771 190.171-190.171V263.314c0-102.4-87.771-190.171-190.171-190.171z m117.028 687.543c0 65.828-51.2 117.028-117.028 117.028H263.314c-65.828 0-117.028-51.2-117.028-117.028V263.314c0-65.828 51.2-117.028 117.028-117.028h497.372c65.828 0 117.028 51.2 117.028 117.028v497.372z" p-id="1539"></path><path d="M219.429 365.714h365.714v73.143H219.429z m0 219.429h512v73.143h-512z" p-id="1540"></path></svg>