<svg t="1597802128090" class="icon" viewBox="0 0 1024 1024" version="1.1" xmlns="http://www.w3.org/2000/svg" p-id="1484" xmlns:xlink="http://www.w3.org/1999/xlink" width="350" height="350"><defs><style type="text/css"></style></defs><path d="M469.32096 0a42.666667 42.666667 0 0 1 7.68 84.650667L469.32096 85.333333h-341.333333A42.666667 42.666667 0 0 1 120.307627 0.682667L127.987627 0h341.333333zM926.195627 459.690667a42.666667 42.666667 0 0 1-54.442667 65.28l-5.973333-4.949334-180.906667-181.077333a42.666667 42.666667 0 0 1 54.357333-65.28l5.973334 4.949333 180.906666 181.077334z" p-id="1485"></path><path d="M926.195627 524.458667a42.666667 42.666667 0 0 0-54.442667-65.28l-5.973333 4.949333-180.906667 181.077333a42.666667 42.666667 0 0 0 54.357333 65.28l5.973334-4.949333 180.906666-181.077333z" p-id="1486"></path><path d="M895.987627 447.146667a42.666667 42.666667 0 0 1 7.68 84.650666l-7.68 0.682667h-512a42.666667 42.666667 0 0 1-7.68-84.650667l7.68-0.682666h512zM469.32096 868.693333a42.666667 42.666667 0 0 1 7.68 84.565334l-7.68 0.768h-341.333333a42.666667 42.666667 0 0 1-7.68-84.650667l7.68-0.682667h341.333333z" p-id="1487"></path><path d="M127.987627 15.36a42.666667 42.666667 0 0 1 41.984 34.986667L170.654293 58.026667v853.333333a42.666667 42.666667 0 0 1-84.650666 7.68L85.32096 911.36v-853.333333a42.666667 42.666667 0 0 1 42.666667-42.666667z" p-id="1488"></path></svg>
