<?xml version="1.0" standalone="no"?><!DOCTYPE svg PUBLIC "-//W3C//DTD SVG 1.1//EN" "http://www.w3.org/Graphics/SVG/1.1/DTD/svg11.dtd"><svg t="1578617754365" class="icon" viewBox="0 0 1280 1024" version="1.1" xmlns="http://www.w3.org/2000/svg" p-id="5022" xmlns:xlink="http://www.w3.org/1999/xlink" width="250" height="200"><defs><style type="text/css"></style></defs><path d="M1167.382362 0 112.457808 0C50.342316 0 0 50.342316 0 112.457808l0 799.084374c0 62.088856 50.342316 112.457808 112.457808 112.457808l1054.924555 0c62.115492 0 112.457808-50.368952 112.457808-112.457808l0-799.084374C1279.84017 50.342316 1229.497854 0 1167.382362 0zM1151.746945 895.880128 128.093225 895.880128 128.093225 128.119861 1151.746945 128.119861 1151.746945 895.880128z" p-id="5023"></path><path d="M1202.115896 279.040263 591.775251 523.959624 639.933403 642.570381 1202.115896 416.749137Z" p-id="5024"></path><path d="M64.859015 273.872851 64.859015 411.608361 639.933403 642.570381 688.064919 523.959624Z" p-id="5025"></path></svg>